<?xml version="1.0" encoding="UTF-8" standalone="no"?>
<!-- Created with Inkscape (http://www.inkscape.org/) -->

<svg
   width="210mm"
   height="120mm"
   viewBox="0 0 210 120"
   version="1.1"
   id="svg1"
   inkscape:version="1.4.2 (ebf0e94, 2025-05-08)"
   sodipodi:docname="background.svg"
   xmlns:inkscape="http://www.inkscape.org/namespaces/inkscape"
   xmlns:sodipodi="http://sodipodi.sourceforge.net/DTD/sodipodi-0.dtd"
   xmlns="http://www.w3.org/2000/svg"
   xmlns:svg="http://www.w3.org/2000/svg">
  <sodipodi:namedview
     id="namedview1"
     pagecolor="#ffffff"
     bordercolor="#000000"
     borderopacity="0.25"
     inkscape:showpageshadow="2"
     inkscape:pageopacity="0.0"
     inkscape:pagecheckerboard="0"
     inkscape:deskcolor="#d1d1d1"
     inkscape:document-units="mm"
     inkscape:zoom="1.4979692"
     inkscape:cx="310.42027"
     inkscape:cy="189.25623"
     inkscape:window-width="2560"
     inkscape:window-height="1368"
     inkscape:window-x="1440"
     inkscape:window-y="393"
     inkscape:window-maximized="1"
     inkscape:current-layer="layer1" />
  <defs
     id="defs1" />
  <g
     inkscape:label="Layer 1"
     inkscape:groupmode="layer"
     id="layer1"
     transform="translate(0,-81.181664)">
    <rect
       style="fill:#aade87;stroke-width:0.397122"
       id="rect1"
       width="210"
       height="120"
       x="-2.7755576e-17"
       y="81.181664" />
    <path
       style="fill:#ccffaa;stroke-width:0.264583"
       d="m -0.24978974,101.78932 c 0.52287691,0.0768 0.52147361,-0.59818 0.87426408,-0.74937 0.19511652,-0.0836 0.43049006,-0.0387 0.62447436,-0.1249 0.1902173,-0.0845 0.3100793,-0.28855 0.4995794,-0.37468 0.2759165,-0.12542 0.5913831,-0.14099 0.8742641,-0.24979 0.2606586,-0.10025 0.4844273,-0.28637 0.7493692,-0.374686 0.364128,-0.121376 0.757701,-0.135304 1.1240539,-0.24979 0.3026246,-0.09457 0.5828427,-0.249789 0.8742641,-0.374684 0.4163163,-0.08326 0.8383666,-0.141742 1.2489486,-0.24979 2.3692858,-0.623496 -0.0584,-0.156986 2.1232127,-0.624474 1.3655793,-0.292624 2.7479753,-0.506977 4.1215303,-0.74937 0.565113,-0.275267 1.170996,-0.03604 1.748528,-0.124894 0.299559,-0.04609 0.575306,-0.199964 0.874265,-0.24979 0.414254,-0.06904 2.758712,-0.08081 3.122371,0 0.347231,0.07716 0.646205,0.330565 0.999159,0.374684 0.206551,0.02582 0.418737,-0.03165 0.624475,0 0.589142,0.09064 1.173457,0.217848 1.748528,0.374685 1.583437,0.431847 -0.573374,0.111873 1.623633,0.49958 0.371254,0.06552 0.75515,0.04723 1.124054,0.124894 1.212741,0.255315 2.394624,0.802787 3.621952,0.999159 0.576987,0.09232 1.168363,0.05528 1.748528,0.124895 0.462139,0.05546 0.915895,0.166527 1.373843,0.249791 0.707737,0.12489 1.409462,0.29071 2.123213,0.37468 0.704104,0.0828 1.420079,0.0342 2.123212,0.1249 0.591175,0.0763 1.157058,0.30075 1.748528,0.37468 0.150265,0.0188 4.547344,0.24381 4.62111,0.24979 1.503029,0.12187 2.995739,0.34953 4.496215,0.49958 1.537756,0.15378 3.088394,0.17692 4.621112,0.37469 1.554803,0.20062 3.071106,0.63941 4.621109,0.87426 0.495655,0.0751 0.999159,0.0833 1.498738,0.1249 0.874265,0.12489 1.751668,0.22949 2.622793,0.37468 2.536367,0.42273 5.086215,0.78852 7.618587,1.24895 0.626568,0.11392 1.243359,0.28203 1.873422,0.37468 0.786908,0.11573 1.590461,0.10751 2.373003,0.24979 0.596389,0.10844 1.154134,0.3807 1.748528,0.49958 0.658254,0.13165 1.339371,0.12166 1.998318,0.24979 0.03779,0.007 3.60244,0.91805 4.121531,0.99916 0.785837,0.12279 1.585624,0.13731 2.373003,0.24979 0.670902,0.0958 1.325528,0.29314 1.998316,0.37469 0.471369,0.0571 4.533048,0.23827 4.746006,0.24979 2.460498,0.133 4.903975,0.12489 7.368797,0.12489 3.832472,0 7.660922,0.0492 11.490332,-0.12489 5.91038,-0.26866 11.8182,-0.751 17.73507,-0.87427 2.32681,-0.0485 4.66657,0 6.99411,0 0.59229,0 1.71154,0.13229 2.373,0 1.83147,-0.36629 3.64108,-0.99609 5.49538,-1.24895 3.81464,-0.52018 7.64952,-0.96444 11.49033,-1.24895 1.74869,-0.12953 3.50279,-0.0561 5.24558,-0.24979 2.25124,-0.25013 4.49061,-0.63279 6.74432,-0.87426 1.78219,-0.19095 3.5953,-0.26289 5.37048,-0.49958 0.67177,-0.0896 1.32742,-0.27884 1.99832,-0.37468 1.08445,-0.15493 2.73818,-0.14545 3.74684,-0.24979 0.46299,-0.0479 0.9159,-0.16653 1.37385,-0.24979 0.62447,-0.0833 1.24655,-0.18711 1.87342,-0.24979 1.15631,-0.27292 2.33466,-0.028 3.49706,-0.1249 4.5609,-0.38007 -2.18415,-0.17539 2.99747,-0.37468 2.78807,-0.10724 5.57788,-0.14646 8.36796,-0.24979 0.95687,-0.0354 1.91614,0.0455 2.87258,0 2.9056,-0.13836 -0.32888,-0.0568 2.37301,-0.37469 0.22018,-0.0259 1.43767,0.0194 1.74852,0 0.41758,-0.0261 0.83114,-0.1029 1.24895,-0.12489 0.99578,-0.0524 2.0023,0.0622 2.99748,0 2.56353,-0.16022 -0.64368,-0.1249 1.62363,-0.1249 0.94214,0 1.93527,0.0937 2.87258,0 0.83426,-0.0834 1.77524,-0.26615 2.6228,-0.12489 0.70543,0.11757 1.4156,0.2736 2.12321,0.37468 0.16485,0.0236 0.33946,-0.0457 0.49958,0 0.12857,0.0367 0.5861,0.33387 0.74937,0.37469 0.12116,0.0303 0.25352,-0.0303 0.37468,0 0.1133,0.0283 0.26716,0.19602 0.37469,0.24979 0.15353,0.0768 0.3782,0.004 0.49958,0.12489 0.33415,0.33415 0.589,0.8686 0.87426,1.24895 0.15253,0.20337 0.50851,0.39255 0.62448,0.62448 0.0186,0.0372 -0.0372,0.10627 0,0.12489 0.0745,0.0372 0.19091,-0.0589 0.24979,0 0.17662,0.0517 -0.0883,0.28637 0,0.37469 0.0294,0.0294 0.0954,-0.0294 0.12489,0 0.0451,0.0451 -0.0998,1.82332 -0.12489,1.87342 -0.0416,0.0833 -0.19816,0.0474 -0.24979,0.12489 -0.0924,0.13856 0.0404,0.33803 0,0.49958 -0.0831,0.33232 -0.18129,0.65667 -0.2498,0.99916 -0.18182,0.90914 -0.0142,-0.0965 -0.37468,0.62448 -0.34531,0.69062 -0.54695,2.00548 -0.74937,2.74768 -0.14831,0.54381 -0.40514,0.84744 -0.62447,1.37385 -0.62625,1.50299 -1.02114,3.11486 -1.62363,4.62111 -0.17287,0.43216 -0.45161,0.81678 -0.62448,1.24895 -0.34457,0.86143 -0.60998,1.74184 -0.87427,2.62279 -0.11781,0.39273 -0.39169,0.72848 -0.49957,1.12405 -0.0775,0.28401 -0.0192,0.59951 -0.1249,0.87426 -0.10777,0.2802 -0.37535,0.47607 -0.49958,0.74937 -0.0878,0.19326 -0.0433,0.42853 -0.12489,0.62448 -0.1291,0.30983 -0.34948,0.57405 -0.49958,0.87426 -1.3709,2.7418 -2.16431,4.99162 -4.74601,6.86922 -1.81255,1.31822 -3.89693,2.01338 -5.99495,2.74769 -1.61175,0.56411 -3.2212,0.94348 -4.8709,1.37384 -0.42057,0.10972 -0.82212,0.2926 -1.24895,0.37468 -0.65921,0.12678 -1.33559,0.1429 -1.99832,0.2498 -1.25002,0.20161 -2.49789,0.41631 -3.74684,0.62447 -0.62818,0.1047 -1.24217,0.29052 -1.87343,0.37468 -0.3811,0.0508 -3.93612,0.23889 -4.12153,0.24979 -2.12794,0.12518 -4.23829,0.1249 -6.36964,0.1249 -3.07756,0 -6.16573,0.0715 -9.24222,0 -3.4033,-0.0791 -6.73365,-0.57578 -10.11648,-0.87426 -0.66482,-0.0587 -1.33582,-0.0441 -1.99832,-0.1249 -1.04627,-0.1276 -2.08,-0.34322 -3.12237,-0.49958 -2.11836,-0.31775 -4.25794,-0.51226 -6.36964,-0.87426 -1.71408,-0.29385 -3.40123,-0.73864 -5.12069,-0.99916 -0.53668,-0.0813 -1.08523,-0.0559 -1.62363,-0.1249 -2.38646,-0.30595 -4.7323,-0.82571 -7.11901,-1.12405 -2.95035,-0.3688 -5.92134,-0.58997 -8.86753,-0.99916 -2.25963,-0.31384 -4.49256,-0.77222 -6.74433,-1.12405 -1.19921,-0.18738 -2.42189,-0.19286 -3.62195,-0.37469 -1.2113,-0.18353 -2.41349,-0.42306 -3.62195,-0.62447 -3.38342,-0.56391 -6.73829,-1.28591 -10.116484,-1.87343 -1.572218,-0.27343 -3.183996,-0.42395 -4.746004,-0.74937 -4.287054,-0.89313 1.491263,0.0533 -2.747687,-0.49957 -2.368346,-0.30892 -0.639672,-0.15292 -2.997478,-0.62448 -3.14049,-0.6281 -0.142872,0.0722 -3.122371,-0.37468 -2.660161,-0.39903 1.136774,-0.19566 -2.622791,-0.37469 -1.582968,-0.0754 -3.164904,-0.16657 -4.746006,-0.24979 -0.415742,-0.0219 -0.835178,0.046 -1.24895,0 -0.341201,-0.0379 -0.658505,-0.20721 -0.999159,-0.24979 -0.660961,-0.0826 -1.33336,0.0391 -1.998316,0 -0.37634,-0.0221 -0.7478,-0.10138 -1.124056,-0.12489 -1.982274,-0.12389 -4.008302,0 -5.994953,0 -2.236671,0 -4.512082,-0.12402 -6.744321,0 -0.376412,0.0209 -0.747535,0.10607 -1.124056,0.12489 -0.873173,0.0437 -1.752865,-0.087 -2.622791,0 -0.422455,0.0422 -0.826301,0.20954 -1.248949,0.24979 -0.455886,0.0434 -0.916327,-0.0199 -1.373844,0 -1.834094,0.0797 -3.66123,0.29132 -5.495375,0.37469 -0.415885,0.0189 -0.834506,-0.0395 -1.248947,0 -0.463359,0.0441 -0.911235,0.19839 -1.373843,0.24979 -0.828575,0.0921 -1.66736,0.0527 -2.497897,0.12489 -0.505415,0.044 -2.152338,0.22627 -2.622794,0.24979 -3.908927,0 1.203582,-0.053 -1.998318,0.1249 -0.457243,0.0254 -0.918411,-0.0479 -1.373844,0 -0.341416,0.0359 -0.657955,0.21187 -0.999159,0.24979 -0.413769,0.046 -0.833207,-0.0219 -1.248947,0 -0.376471,0.0198 -0.747797,0.10138 -1.124053,0.12489 -0.947883,0.0592 -1.922894,0 -2.872584,0 -2.039948,0 -4.079898,0 -6.119848,0 -1.822769,0 -3.675125,0.0867 -5.495374,0 -2.625732,-0.12503 0.07215,-0.069 -2.373003,-0.37468 -3.455586,-0.43195 2.521022,0.64914 -2.123212,-0.1249 -0.338633,-0.0564 -0.660527,-0.19335 -0.999159,-0.24979 -0.4127,-0.0688 -0.836923,-0.0522 -1.248949,-0.12489 -0.298471,-0.0527 -0.582843,-0.16653 -0.874264,-0.24979 -0.4163163,-0.0833 -0.8301643,-0.17999 -1.2489486,-0.24979 -0.3310782,-0.0552 -0.6771529,-0.0302 -0.999159,-0.1249 -0.3933627,-0.11569 -0.733062,-0.37611 -1.1240537,-0.49958 -0.404854,-0.12785 -0.8440949,-0.12194 -1.2489487,-0.24979 -0.8554079,-0.27013 -1.9479469,-0.81832 -2.7476873,-1.24895 -2.5722606,-1.38506 1.2371036,0.43121 -1.6236332,-0.99915 -0.2005244,-0.10027 -0.43533116,-0.12943 -0.62447429,-0.24979 -0.28339833,-0.18035 -1.47647188,-1.10179 -1.74852815,-1.37385 -0.14718996,-0.14719 -0.22749456,-0.35239 -0.37468456,-0.49958 -0.1884952,-0.18849 -0.4489352,-0.29896 -0.6244744,-0.49958 -0.1226019,-0.14011 -0.1415735,-0.34807 -0.2497897,-0.49957 -0.102663,-0.14373 -0.2956942,-0.21671 -0.3746846,-0.37469 -0.094935,-0.18987 -0.073409,-0.41853 -0.1248948,-0.62447 -0.2129923,-0.85197 -0.2497897,-1.24964 -0.2497897,-2.12322 0,-0.57769 -0.04546,-1.35673 0.2497897,-1.87342 0.087632,-0.15336 0.2720216,-0.23096 0.3746845,-0.37469 0.1082163,-0.1515 0.1511133,-0.34169 0.2497898,-0.49957 0.4293023,-0.68689 0.9462089,-1.31411 1.37384349,-1.99832 0.36057324,-0.57692 0.87799781,-1.06721 1.24894868,-1.62364 0.10327534,-0.15491 0.1465144,-0.34466 0.24978974,-0.49957 0.14786779,-0.22181 0.35829639,-0.39843 0.49957949,-0.62448 0.069775,-0.11164 0.051868,-0.26514 0.1248948,-0.37468 0.097976,-0.14697 0.2720217,-0.23096 0.3746846,-0.37469 0.1082163,-0.1515 0.1305988,-0.35655 0.2497898,-0.49958 0.096095,-0.11531 0.2685444,-0.14365 0.3746846,-0.24979 0.1522842,-0.15228 0.2224004,-0.34729 0.3746845,-0.49958 0.5685571,-0.56855 0.066019,0.0517 0.2497897,-0.49958 0.037237,-0.11171 0.1971297,-0.14447 0.24979,-0.24979 0.1538049,-0.30761 -0.3625369,0.11275 0.1248947,-0.37468 0.065825,-0.0658 0.1839645,-0.0591 0.2497897,-0.1249 0.029499,-0.0295 0.034865,-0.85683 0,-0.87426 -0.2914214,-0.14571 -0.2497897,0.15612 -0.2497897,-0.1249 -0.041632,-0.0833 -0.05907,-0.18396 -0.1248947,-0.24979 -0.1552168,-0.15521 -0.7161804,-0.2166 -0.8742642,-0.37468 -0.065825,-0.0658 -0.047438,-0.19815 -0.1248949,-0.24979 -0.069279,-0.0462 -0.1707993,0.0263 -0.2497897,0 -0.1117094,-0.0372 -0.1444692,-0.19713 -0.2497898,-0.24979 -1.07724352,-0.53862 -0.99835752,-0.37388 -1.99831784,-1.37384 z"
       id="path1" />
    <path
       style="fill:#ccffaa;stroke-width:0.264583"
       d="m -51.175115,135.19173 c 0.480608,0.2198 0.667812,-0.4287 1.048792,-0.47532 0.210703,-0.0258 0.424163,0.0831 0.634505,0.0545 0.20625,-0.028 0.37834,-0.19044 0.584356,-0.22021 0.299969,-0.0433 0.607226,0.0298 0.909238,0.004 0.278287,-0.0235 0.545138,-0.13965 0.824202,-0.15044 0.383539,-0.0148 0.765336,0.0817 1.149084,0.0742 0.317004,-0.006 0.629418,-0.077 0.944128,-0.11555 0.423013,0.0363 0.844586,0.0981 1.269007,0.10904 2.449135,0.0632 -0.01222,-0.16705 2.213132,-0.007 1.392958,0.1005 2.780203,0.28083 4.166789,0.43179 0.619511,-0.10645 1.134436,0.29254 1.713808,0.36852 0.300512,0.0394 0.608264,-0.0313 0.909239,0.004 0.417038,0.0495 2.671462,0.69305 2.998073,0.87222 0.311843,0.17112 0.528141,0.49791 0.854719,0.63887 0.191122,0.0825 0.410895,0.0866 0.599616,0.17444 0.54038,0.25157 1.065888,0.53698 1.574254,0.84822 1.399771,0.85697 -0.581799,-0.0528 1.419444,0.93324 0.338178,0.1666 0.711903,0.25627 1.044419,0.43392 1.093144,0.58391 2.075043,1.43975 3.198658,1.97115 0.528235,0.2498 1.106404,0.37947 1.644034,0.60836 0.428239,0.18238 0.832916,0.41575 1.249375,0.62362 0.644676,0.31762 1.272145,0.67286 1.934026,0.95287 0.652945,0.27619 1.353994,0.42953 2.0038,0.71303 0.546327,0.2384 1.026984,0.612 1.574257,0.84821 0.139031,0.06 4.298213,1.50437 4.367372,1.53072 1.409152,0.53688 2.778843,1.17245 4.177672,1.73568 1.433582,0.57722 2.916027,1.0326 4.332484,1.65065 1.436866,0.62696 2.770234,1.47185 4.192929,2.13033 0.454945,0.21057 0.936115,0.3591 1.404186,0.53859 0.804574,0.36414 1.617829,0.70968 2.413718,1.09243 2.317311,1.11442 4.663471,2.17793 6.966415,3.32743 0.569802,0.28441 1.115079,0.61813 1.694179,0.88309 0.723253,0.33095 1.497114,0.54752 2.208759,0.90273 0.542356,0.27072 1.001843,0.68795 1.539367,0.96814 0.595274,0.31028 1.252067,0.49096 1.848987,0.79807 0.03433,0.0173 3.202581,1.88782 3.67835,2.11071 0.720253,0.33742 1.484145,0.57477 2.208759,0.90273 0.617433,0.27939 1.190874,0.65174 1.814098,0.91799 0.436654,0.1865 4.286034,1.49506 4.487297,1.56561 2.325397,0.81503 4.673867,1.48981 7.040567,2.17834 3.67991,1.07058 7.34221,2.18727 11.06781,3.08983 5.75014,1.39306 11.55752,2.58024 17.27328,4.11471 2.24773,0.60341 4.4808,1.30358 6.715683,1.95376 0.56871,0.16545 1.60645,0.60513 2.27853,0.66288 1.86089,0.1599 3.77439,0.0607 5.62551,0.33586 3.80809,0.56612 7.61441,1.2108 11.3818,2.01052 1.71526,0.36411 3.37902,0.92461 5.10654,1.22547 2.231488,0.3887 4.488608,0.64682 6.720048,1.04453 1.76459,0.31449 3.52561,0.75189 5.29624,1.02051 0.67006,0.10162 1.35247,0.10307 2.02344,0.19846 1.08456,0.15417 2.6698,0.62523 3.66746,0.8068 0.45794,0.0833 0.92596,0.096 1.38893,0.14393 0.62288,0.0945 1.2492,0.16856 1.86862,0.28349 1.18652,0.0609 2.24954,0.62528 3.39274,0.85695 4.48551,0.90912 -2.04821,-0.77854 2.98281,0.47756 2.70704,0.67586 5.39674,1.41751 8.10462,2.09769 0.92866,0.2333 1.82715,0.57895 2.75822,0.80243 2.82858,0.67881 -0.29992,-0.14641 2.38321,0.30311 0.21865,0.0366 1.37502,0.42024 1.67892,0.48844 0.40825,0.0916 0.8268,0.13337 1.23412,0.22897 0.97077,0.22785 1.90521,0.61905 2.87815,0.83733 2.50624,0.56226 -0.58317,-0.29974 1.59388,0.33362 0.90464,0.26318 1.83206,0.63057 2.75823,0.80243 0.82435,0.15297 1.77892,0.24035 2.55328,0.61275 0.6445,0.30995 1.28282,0.65815 1.93402,0.95287 0.1517,0.0687 0.33871,0.0509 0.47969,0.13955 0.1132,0.0712 0.46951,0.4843 0.61487,0.56911 0.10788,0.0629 0.2519,0.0417 0.35977,0.10466 0.10088,0.0588 0.20177,0.26285 0.29,0.34452 0.12596,0.11663 0.36202,0.10948 0.4448,0.25947 0.22751,0.41419 0.32292,0.99855 0.49057,1.44345 0.0897,0.23788 0.37861,0.51897 0.42518,0.77406 0.007,0.0409 -0.0654,0.0917 -0.0349,0.11992 0.0611,0.0565 0.19976,-0.003 0.23985,0.0698 0.15514,0.099 -0.16478,0.2503 -0.10467,0.35977 0.02,0.0364 0.0998,-0.002 0.11992,0.0349 0.0307,0.0559 -0.60516,1.72286 -0.64325,1.76395 -0.0632,0.0684 -0.20351,-0.01 -0.27473,0.0501 -0.12743,0.10724 -0.0556,0.33587 -0.13956,0.47971 -0.17262,0.29587 -0.35751,0.57988 -0.51896,0.8896 -0.42855,0.82216 0.0133,-0.0966 -0.53421,0.49496 -0.52449,0.56666 -1.0854,1.77285 -1.48709,2.42896 -0.29431,0.48074 -0.62574,0.70053 -0.98338,1.14472 -1.02117,1.26822 -1.85061,2.70561 -2.84988,3.9836 -0.28671,0.36667 -0.66179,0.65811 -0.9485,1.02479 -0.57149,0.73088 -1.07227,1.5021 -1.57213,2.27415 -0.22282,0.34419 -0.57959,0.59007 -0.79368,0.93976 -0.15375,0.25105 -0.1859,0.57028 -0.36414,0.80456 -0.18175,0.23894 -0.4934,0.35227 -0.68903,0.57999 -0.13829,0.16104 -0.16128,0.39937 -0.29436,0.56473 -0.21051,0.26143 -0.49592,0.45357 -0.72391,0.6999 -2.08223,2.2497 -3.47253,4.18833 -6.47595,5.27 -2.10863,0.75942 -4.30422,0.84465 -6.52385,0.96366 -1.70517,0.0914 -3.35652,0.006 -5.06077,-0.0415 -0.43447,-0.0121 -0.87112,0.0513 -1.30389,0.0109 -0.66838,-0.0624 -1.32234,-0.23588 -1.98855,-0.31836 -1.25658,-0.1556 -2.51475,-0.29803 -3.77213,-0.44704 -0.63242,-0.075 -1.27387,-0.068 -1.90351,-0.16357 -0.38012,-0.0577 -3.84616,-0.87015 -4.02724,-0.91148 -2.07819,-0.47423 -4.10445,-1.06401 -6.15096,-1.65939 -2.95504,-0.85969 -5.94025,-1.6537 -8.874298,-2.58175 -3.24572,-1.02664 -6.30475,-2.43386 -9.46953,-3.66543 -0.62196,-0.24208 -1.27033,-0.4155 -1.88388,-0.67814 -0.96898,-0.41479 -1.90132,-0.9106 -2.85852,-1.35191 -1.94527,-0.89685 -3.94534,-1.6813 -5.87185,-2.61877 -1.56376,-0.76097 -3.0595,-1.65935 -4.63774,-2.38982 -0.4926,-0.22798 -1.026413,-0.35683 -1.524103,-0.57348 -2.206,-0.96041 -4.31326,-2.11478 -6.52162,-3.06795 -2.72988,-1.17828 -5.52081,-2.22057 -8.23541,-3.43647 -2.08201,-0.93256 -4.09801,-1.99645 -6.16185,-2.96329 -1.09913,-0.51491 -2.27161,-0.86172 -3.3731,-1.37154 -1.11181,-0.51459 -2.19923,-1.08041 -3.30332,-1.61138 -3.09121,-1.4866 -6.11084,-3.11702 -9.19044,-4.62483 -1.43324,-0.70173 -2.938811,-1.2965 -4.347736,-2.0453 -3.866902,-2.05514 1.417006,0.46775 -2.498754,-1.24723 -2.18777,-0.9582 -0.57149,-0.32552 -2.703708,-1.43695 -2.840015,-1.48037 -0.157353,0.0294 -2.893409,-1.23198 -2.442796,-1.12624 1.146177,0.12968 -2.413713,-1.09243 -1.49889,-0.51459 -2.992383,-1.04403 -4.487297,-1.56561 -0.393074,-0.13716 -0.81478,-0.18913 -1.19923,-0.34889 -0.317032,-0.1317 -0.574408,-0.38291 -0.889607,-0.51895 -0.611575,-0.26395 -1.291203,-0.33492 -1.918765,-0.55822 -0.355185,-0.12635 -0.689712,-0.30624 -1.044422,-0.43391 -1.868754,-0.6727 -3.848737,-1.1197 -5.756301,-1.67465 -2.147632,-0.6248 -4.297818,-1.37951 -6.475838,-1.88399 -0.367266,-0.0851 -0.747407,-0.10697 -1.114196,-0.19408 -0.850621,-0.20195 -1.658783,-0.57318 -2.518381,-0.73266 -0.417426,-0.0775 -0.851941,-0.0296 -1.269007,-0.10904 -0.449862,-0.0857 -0.874291,-0.27507 -1.319153,-0.38377 -1.783345,-0.43581 -3.59686,-0.74302 -5.381279,-1.17532 -0.404608,-0.098 -0.790251,-0.27104 -1.199228,-0.34889 -0.457232,-0.0871 -0.930378,-0.0641 -1.388929,-0.14393 -0.821318,-0.14302 -1.615706,-0.41516 -2.433346,-0.57785 -0.497586,-0.0989 -2.129863,-0.38398 -2.588161,-0.49281 -3.753317,-1.09194 1.170474,0.28532 -1.953657,-0.43829 -0.446136,-0.10334 -0.86847,-0.30255 -1.319153,-0.38378 -0.337853,-0.0609 -0.690947,0.0196 -1.029161,-0.0393 -0.410147,-0.0714 -0.793921,-0.25378 -1.199228,-0.34888 -0.367015,-0.0862 -0.746348,-0.11155 -1.114193,-0.19408 -0.926686,-0.20794 -1.846346,-0.53715 -2.75823,-0.80244 -1.958741,-0.56985 -3.917483,-1.13969 -5.876225,-1.70954 -1.750207,-0.50918 -3.553042,-0.94337 -5.27661,-1.5351 -2.486278,-0.85353 0.08855,-0.0461 -2.173872,-1.02264 -3.197361,-1.38005 2.23933,1.32753 -2.0038,-0.71304 -0.309397,-0.14875 -0.580221,-0.37016 -0.889606,-0.51895 -0.377052,-0.18135 -0.789025,-0.28391 -1.164343,-0.46881 -0.271868,-0.13397 -0.513122,-0.32271 -0.769683,-0.48406 -0.376474,-0.19628 -0.746838,-0.40473 -1.129453,-0.58873 -0.302478,-0.14549 -0.64176,-0.21816 -0.924494,-0.39904 -0.345385,-0.22097 -0.598816,-0.56591 -0.939751,-0.79369 -0.353023,-0.23585 -0.77643,-0.35288 -1.129453,-0.58873 -0.745896,-0.49833 -1.641809,-1.32989 -2.289419,-1.96678 -2.082955,-2.04847 1.0674,0.75962 -1.279893,-1.41293 -0.164531,-0.15229 -0.381845,-0.24588 -0.529837,-0.41429 -0.221737,-0.25233 -1.109918,-1.47037 -1.295146,-1.80759 -0.100214,-0.18245 -0.12,-0.40192 -0.220214,-0.58436 -0.128338,-0.23364 -0.347551,-0.41247 -0.46006,-0.65414 -0.07858,-0.16878 -0.03871,-0.37376 -0.100295,-0.54946 -0.05843,-0.16668 -0.223386,-0.29068 -0.255101,-0.46444 -0.03812,-0.20883 0.04643,-0.42237 0.05452,-0.6345 0.03348,-0.87755 0.109232,-1.26967 0.353261,-2.10847 0.161374,-0.55469 0.335344,-1.31542 0.763174,-1.72906 0.126981,-0.12278 0.32571,-0.14578 0.464435,-0.25511 0.14623,-0.11524 0.240547,-0.28588 0.379398,-0.40991 0.604091,-0.53962 1.27563,-0.99748 1.877371,-1.53499 0.507378,-0.45323 1.141164,-0.77947 1.652782,-1.21012 0.142438,-0.1199 0.236961,-0.29001 0.379398,-0.40991 0.203942,-0.17167 0.455332,-0.28248 0.654136,-0.46006 0.09818,-0.0877 0.123871,-0.2401 0.224587,-0.32488 0.135135,-0.11375 0.32571,-0.14578 0.464436,-0.25511 0.146229,-0.11524 0.225,-0.30587 0.379401,-0.40991 0.124476,-0.0839 0.297981,-0.0629 0.429545,-0.13518 0.188762,-0.10368 0.310561,-0.27134 0.499324,-0.37503 0.704747,-0.38711 0.04895,0.0681 0.3794,-0.40992 0.06697,-0.0969 0.229642,-0.0837 0.309627,-0.17008 0.233611,-0.2524 -0.379601,0.007 0.224586,-0.32487 0.08159,-0.0448 0.193151,-0.005 0.274736,-0.0501 0.03657,-0.0201 0.272822,-0.81298 0.244219,-0.83946 -0.239117,-0.22131 -0.283457,0.0801 -0.204956,-0.1897 -0.0167,-0.0916 -0.0053,-0.19314 -0.05015,-0.27474 -0.105681,-0.19239 -0.627165,-0.40804 -0.734797,-0.60398 -0.04482,-0.0816 0.0098,-0.20352 -0.05015,-0.27474 -0.05362,-0.0637 -0.171347,-0.0225 -0.239846,-0.0698 -0.09687,-0.0669 -0.08365,-0.22964 -0.170069,-0.30963 -0.883899,-0.8181 -0.854173,-0.63788 -1.534994,-1.87736 z"
       id="path1-2" />
    <path
       style="fill:#ccffaa;stroke-width:0.264583"
       d="m 150.99549,49.258471 c -0.11986,0.514713 0.55292,0.569247 0.67435,0.933353 0.0672,0.201367 0.003,0.432217 0.0727,0.632674 0.0684,0.196565 0.26186,0.332924 0.33199,0.528909 0.10208,0.285372 0.0915,0.601028 0.17685,0.891882 0.0784,0.268059 0.24525,0.50649 0.31131,0.777838 0.0908,0.37294 0.0721,0.766301 0.15573,1.140897 0.0689,0.309482 0.2006,0.601544 0.30095,0.902307 0.0485,0.421785 0.0718,0.847229 0.14544,1.265352 0.42499,2.412808 0.16129,-0.04519 0.44687,2.167559 0.17845,1.385131 0.27752,2.780535 0.40525,4.169453 0.2275,0.58598 -0.0611,1.169951 -0.0204,1.752863 0.0211,0.302346 0.15161,0.589898 0.17685,0.891883 0.0344,0.418554 -0.14808,2.755921 -0.25874,3.111633 -0.1057,0.339639 -0.38296,0.616591 -0.45618,0.964674 -0.0429,0.203709 -0.003,0.41991 -0.0517,0.622327 -0.13911,0.579609 -0.31434,1.15137 -0.51829,1.711467 -0.56157,1.542207 -0.0639,-0.580682 -0.63241,1.576651 -0.096,0.36455 -0.10961,0.748642 -0.21761,1.109839 -0.35491,1.187413 -0.99845,2.319865 -1.29585,3.5267 -0.13979,0.567354 -0.15192,1.159761 -0.26935,1.732165 -0.0936,0.45595 -0.24186,0.898947 -0.36278,1.34842 -0.1831,0.694954 -0.4065,1.380524 -0.54933,2.084862 -0.14086,0.694822 -0.15176,1.412362 -0.30041,2.10556 -0.12502,0.582818 -0.3956,1.128158 -0.51829,1.711468 -0.0312,0.148184 -0.61978,4.511496 -0.63185,4.584514 -0.246,1.487769 -0.59657,2.956478 -0.87044,4.439362 -0.28068,1.519722 -0.43224,3.063104 -0.75633,4.574167 -0.32877,1.53283 -0.8917,3.00755 -1.25418,4.53277 -0.11592,0.48772 -0.16582,0.98882 -0.24866,1.48323 -0.19691,0.86091 -0.37387,1.72663 -0.59074,2.58272 -0.63145,2.49262 -1.20728,5.00338 -1.87596,7.4889 -0.16545,0.61497 -0.3841,1.21571 -0.52863,1.83593 -0.18055,0.77461 -0.23894,1.57608 -0.44558,2.34414 -0.15748,0.58535 -0.47503,1.11862 -0.64276,1.70112 -0.18573,0.64508 -0.23223,1.32468 -0.41453,1.97074 -0.0101,0.0371 -1.2134,3.51398 -1.33725,4.02457 -0.18749,0.77295 -0.26823,1.56878 -0.44558,2.34414 -0.15105,0.66065 -0.40196,1.29667 -0.53899,1.9604 -0.096,0.46501 -0.61308,4.4977 -0.64221,4.70897 -0.33643,2.44102 -0.53082,4.87677 -0.73507,7.33311 -0.31758,3.8193 -0.68385,7.6305 -0.82768,11.46117 -0.22203,5.91231 -0.23091,11.83979 -0.59836,17.74652 -0.14448,2.32283 -0.3867,4.65052 -0.57957,6.97005 -0.0491,0.59025 -0.27366,1.69469 -0.19664,2.36484 0.21327,1.85553 0.69093,3.71111 0.78929,5.57998 0.20229,3.84462 0.32724,7.70313 0.29251,11.55431 -0.0158,1.7534 -0.23435,3.49539 -0.18575,5.24824 0.0627,2.26422 0.25851,4.5276 0.31238,6.79356 0.0426,1.79189 -0.0359,3.60472 0.0528,5.39341 0.0336,0.67688 0.16788,1.34596 0.2078,2.0225 0.0645,1.09356 -0.0819,2.74081 -0.0615,3.75465 0.009,0.46536 0.09,0.92656 0.13508,1.38982 0.0312,0.62923 0.0832,1.25777 0.0937,1.88768 0.17622,1.17494 -0.16555,2.32894 -0.16531,3.49538 8.2e-4,4.57671 0.35578,-2.16211 0.12501,3.01821 -0.12417,2.78737 -0.31625,5.57083 -0.44448,8.35988 -0.044,0.95651 -0.20413,1.90578 -0.23804,2.8627 -0.10289,2.90707 0.0839,-0.32305 0.17677,2.39589 0.008,0.22156 -0.13848,1.43112 -0.1449,1.74252 -0.009,0.41831 0.0337,0.83681 0.021,1.255 -0.0303,0.99669 -0.22791,1.99025 -0.24839,2.98717 -0.0528,2.56799 0.17781,-0.63112 -0.0101,1.62839 -0.0781,0.9389 -0.25374,1.92085 -0.23803,2.8627 0.014,0.83831 0.11812,1.79119 -0.0929,2.62414 -0.17562,0.69325 -0.38996,1.38806 -0.54933,2.08485 -0.0372,0.16233 0.0175,0.34207 -0.0414,0.49786 -0.0473,0.1251 -0.38129,0.55642 -0.43551,0.71574 -0.0402,0.11824 0.009,0.25517 -0.031,0.3734 -0.0376,0.11056 -0.21749,0.25 -0.27998,0.35271 -0.0893,0.14663 -0.0353,0.37656 -0.16586,0.4875 -0.36069,0.30532 -0.91441,0.51501 -1.3171,0.76776 -0.2153,0.13521 -0.43334,0.47423 -0.67408,0.57059 -0.0387,0.015 -0.10287,-0.0459 -0.12446,-0.0104 -0.0432,0.0711 0.0427,0.19517 -0.0207,0.24894 -0.0662,0.17172 -0.27807,-0.11173 -0.3734,-0.031 -0.0317,0.0268 0.0218,0.0974 -0.0104,0.12446 -0.0487,0.0412 -1.80878,-0.25055 -1.85662,-0.27971 -0.0796,-0.0483 -0.0307,-0.20143 -0.10373,-0.25928 -0.13043,-0.10357 -0.34021,0.0123 -0.49788,-0.0414 -0.32428,-0.11035 -0.63938,-0.23508 -0.97501,-0.33173 -0.89095,-0.25654 0.0973,-0.006 -0.59129,-0.42514 -0.65963,-0.40136 -1.95326,-0.71126 -2.67613,-0.97449 -0.52966,-0.19285 -0.81095,-0.47397 -1.31738,-0.73616 -1.44593,-0.74864 -3.01953,-1.27574 -4.47068,-2.00098 -0.41635,-0.20809 -0.77654,-0.51774 -1.19291,-0.72582 -0.82991,-0.41477 -1.68529,-0.75222 -2.54131,-1.08861 -0.38162,-0.14994 -0.69352,-0.4507 -1.0788,-0.59099 -0.2766,-0.10077 -0.59585,-0.0688 -0.86089,-0.19691 -0.27031,-0.13062 -0.44334,-0.41352 -0.70541,-0.55997 -0.18532,-0.10351 -0.42346,-0.0787 -0.61198,-0.1762 -0.29806,-0.15433 -0.54311,-0.39585 -0.82985,-0.57031 -2.61877,-1.59338 -4.79511,-2.5705 -6.45232,-5.29891 -1.16349,-1.91555 -1.68353,-4.05036 -2.24147,-6.20202 -0.42859,-1.65296 -0.67321,-3.28832 -0.96549,-4.96799 -0.0745,-0.4282 -0.22347,-0.84353 -0.26992,-1.27569 -0.0717,-0.66745 -0.0317,-1.34284 -0.0833,-2.01215 -0.0973,-1.26243 -0.20789,-2.5238 -0.31184,-3.78571 -0.0522,-0.6347 -0.18663,-1.26195 -0.21815,-1.89803 -0.019,-0.384 0.0881,-3.94237 0.0926,-4.12806 0.0516,-2.13098 0.22674,-4.23405 0.40336,-6.35808 0.25501,-3.06696 0.43966,-6.15044 0.76585,-9.21043 0.36084,-3.38504 1.13178,-6.66278 1.70956,-10.00924 0.11359,-0.65767 0.15464,-1.32757 0.29005,-1.98109 0.21387,-1.03211 0.51441,-2.04441 0.75661,-3.07024 0.49219,-2.08474 0.86333,-4.20085 1.39907,-6.27528 0.43487,-1.68384 1.01794,-3.32833 1.42005,-5.02029 0.12549,-0.5281 0.14564,-1.07687 0.25902,-1.60769 0.50264,-2.35291 1.21501,-4.64761 1.71009,-7.00139 0.61202,-2.90964 1.07862,-5.85208 1.73054,-8.75423 0.5,-2.22586 1.14184,-4.41313 1.67905,-6.62799 0.28611,-1.17956 0.39289,-2.39759 0.67354,-3.57845 0.28327,-1.19192 0.62159,-2.37013 0.92245,-3.55774 0.84234,-3.32506 1.83986,-6.60856 2.7053,-9.92646 0.40277,-1.54415 0.68633,-3.13791 1.14006,-4.66759 1.24531,-4.1983 -0.17668,1.48172 0.72554,-2.69683 0.50411,-2.3346 0.2054,-0.6248 0.87073,-2.93543 0.88617,-3.07763 -0.0601,-0.14836 0.63212,-3.08058 0.61809,-2.61794 0.10079,1.14908 0.59074,-2.58272 0.20631,-1.57128 0.42825,-3.14021 0.64221,-4.70899 0.0563,-0.41249 0.0234,-0.83612 0.1035,-1.24465 0.066,-0.33689 0.26106,-0.63907 0.33172,-0.97502 0.13709,-0.65185 0.0715,-1.33202 0.16559,-1.99145 0.0532,-0.37321 0.163,-0.73683 0.2176,-1.10984 0.28773,-1.96518 0.33216,-3.99452 0.49677,-5.97433 0.18535,-2.22898 0.4975,-4.48629 0.55888,-6.72113 0.0104,-0.37686 -0.0438,-0.75376 -0.0313,-1.13054 0.0288,-0.87379 0.23195,-1.73963 0.21734,-2.61377 -0.007,-0.4245 -0.14037,-0.84082 -0.14543,-1.26535 -0.005,-0.45793 0.0958,-0.91152 0.11384,-1.369124 0.0725,-1.834385 0.0131,-3.672779 0.082,-5.507521 0.0156,-0.416014 0.10851,-0.828362 0.1035,-1.244652 -0.006,-0.465421 -0.12216,-0.924549 -0.13509,-1.389817 -0.0231,-0.833357 0.0856,-1.665992 0.0825,-2.499655 -0.002,-0.507315 -0.0471,-2.163686 -0.0316,-2.634472 0.32392,-3.895484 -0.0469,1.203834 0.0411,-2.001795 0.0126,-0.457775 0.12385,-0.911284 0.11385,-1.36912 -0.007,-0.343216 -0.15658,-0.673256 -0.1661,-1.016429 -0.0116,-0.416154 0.0909,-0.828527 0.10349,-1.24465 0.0115,-0.376827 -0.0391,-0.753627 -0.0313,-1.130537 0.0195,-0.949528 0.15934,-1.916281 0.23804,-2.862705 0.16904,-2.032933 0.33807,-4.065866 0.50712,-6.098801 0.15104,-1.8165 0.21813,-3.669669 0.45538,-5.476475 0.34217,-2.606339 0.0628,0.07762 0.57002,-2.333792 0.71681,-3.407907 -0.85581,2.458561 0.30042,-2.105561 0.0843,-0.332795 0.24741,-0.642232 0.33172,-0.975023 0.10276,-0.40558 0.12137,-0.829719 0.22796,-1.234306 0.0772,-0.293076 0.21425,-0.567038 0.32137,-0.850556 0.11751,-0.407982 0.24817,-0.812396 0.35242,-1.223955 0.0824,-0.325365 0.0862,-0.672322 0.20727,-0.985374 0.14789,-0.382422 0.43556,-0.699374 0.59101,-1.078789 0.16096,-0.392866 0.19147,-0.831088 0.35242,-1.223954 0.34009,-0.830082 0.97693,-1.873437 1.47235,-2.634743 1.59345,-2.448642 -0.53224,1.197116 1.13026,-1.535256 0.11653,-0.191524 0.16505,-0.423107 0.30068,-0.601627 0.2032,-0.267478 1.22034,-1.380094 1.514,-1.62867 0.15889,-0.134487 0.37004,-0.197512 0.52892,-0.331998 0.20346,-0.172227 0.33513,-0.422618 0.54961,-0.580929 0.14979,-0.110568 0.3586,-0.112247 0.51855,-0.207535 0.15174,-0.0904 0.24046,-0.276718 0.40445,-0.342346 0.19708,-0.07888 0.42317,-0.03847 0.63267,-0.07272 0.86669,-0.141659 1.26604,-0.145379 2.13662,-0.07299 0.5757,0.04787 1.35583,0.06712 1.84627,0.404173 0.14557,0.100035 0.20763,0.290224 0.34235,0.404443 0.14202,0.1204 0.328,0.178908 0.47716,0.290328 0.64895,0.484746 1.23118,1.051848 1.8776,1.534711 0.54506,0.40714 0.99079,0.963411 1.51456,1.379195 0.14583,0.115757 0.33133,0.174572 0.47716,0.290328 0.20879,0.16574 0.36737,0.39008 0.58093,0.54961 0.10547,0.07878 0.25993,0.07366 0.36304,0.155512 0.13835,0.109821 0.20763,0.290224 0.34236,0.404444 0.14201,0.120398 0.3445,0.159696 0.47716,0.29033 0.10697,0.10531 0.12088,0.279527 0.21788,0.394094 0.13914,0.16438 0.32767,0.250414 0.46682,0.414794 0.51949,0.613714 -0.057,0.06151 0.47716,0.290327 0.10828,0.04637 0.12769,0.208417 0.22825,0.269631 0.2938,0.178766 -0.0823,-0.370631 0.36303,0.155513 0.0601,0.07105 0.0433,0.188301 0.10372,0.259291 0.027,0.03184 0.851,0.105742 0.87126,0.07244 0.16935,-0.278344 -0.13486,-0.261873 0.14517,-0.23858 0.0864,-0.03458 0.18823,-0.04359 0.25928,-0.103772 0.16754,-0.141821 0.2752,-0.695769 0.44583,-0.840209 0.0711,-0.06015 0.20141,-0.03086 0.25929,-0.103771 0.0518,-0.06522 -0.012,-0.1724 0.0207,-0.248936 0.0463,-0.108237 0.20842,-0.127636 0.26964,-0.228233 0.62603,-1.028905 0.45532,-0.963942 1.5347,-1.8776 z"
       id="path1-2-6" />
    <path
       style="fill:#ccffaa;stroke-width:0.264583"
       d="m 316.49596,236.96491 c -0.44278,-0.28852 -0.72392,0.32513 -1.1076,0.31483 -0.21221,-0.006 -0.40723,-0.14487 -0.61944,-0.14786 -0.2081,-0.003 -0.40236,0.13233 -0.61051,0.13127 -0.30308,-0.002 -0.59612,-0.11938 -0.89863,-0.13855 -0.27871,-0.0179 -0.55981,0.0574 -0.83739,0.0268 -0.38152,-0.0421 -0.74482,-0.19409 -1.12544,-0.24349 -0.3144,-0.041 -0.63388,-0.017 -0.95083,-0.0255 -0.41297,-0.0986 -0.82077,-0.22202 -1.23889,-0.29569 -2.41279,-0.42506 -0.0126,0.16702 -2.18978,-0.32069 -1.36274,-0.3056 -2.708,-0.68931 -4.05696,-1.04387 -0.62845,0.0136 -1.07865,-0.4572 -1.64038,-0.61813 -0.29136,-0.0835 -0.6062,-0.0591 -0.89863,-0.13856 -0.40512,-0.11069 -2.53944,-1.08087 -2.83593,-1.30642 -0.28307,-0.21539 -0.44861,-0.5706 -0.75073,-0.75835 -0.17678,-0.10993 -0.3936,-0.14631 -0.5672,-0.26124 -0.49718,-0.3288 -0.97465,-0.68885 -1.43134,-1.07191 -1.25749,-1.05475 0.56756,0.13837 -1.26566,-1.13309 -0.3098,-0.21479 -0.66612,-0.35883 -0.96867,-0.58375 -0.99467,-0.73929 -1.83905,-1.73106 -2.87162,-2.42294 -0.48544,-0.32524 -1.03804,-0.53907 -1.53587,-0.84503 -0.39652,-0.24376 -0.76219,-0.53447 -1.14329,-0.8017 -0.59056,-0.40955 -1.15852,-0.85376 -1.77166,-1.22867 -0.60487,-0.36981 -1.27549,-0.62524 -1.87617,-1.00181 -0.50502,-0.31665 -0.92507,-0.75728 -1.43135,-1.07191 -0.1286,-0.0799 -4.02815,-2.12407 -4.09265,-2.16036 -1.31416,-0.73957 -2.57467,-1.57091 -3.87472,-2.335 -1.33233,-0.78308 -2.73102,-1.4529 -4.04039,-2.27382 -1.32822,-0.83275 -2.52182,-1.86572 -3.83137,-2.72755 -0.41876,-0.2756 -0.87264,-0.49372 -1.30899,-0.74052 -0.7418,-0.47923 -1.49494,-0.94136 -2.22539,-1.43771 -2.12682,-1.44518 -4.28968,-2.84428 -6.3971,-4.32203 -0.52142,-0.36563 -1.01129,-0.77639 -1.54479,-1.12415 -0.66629,-0.43437 -1.39956,-0.76311 -2.05078,-1.21977 -0.49631,-0.34801 -0.88897,-0.82867 -1.37909,-1.18535 -0.54279,-0.39497 -1.16559,-0.6709 -1.71047,-1.06299 -0.0314,-0.0222 -2.88784,-2.3411 -3.32538,-2.63197 -0.66236,-0.44032 -1.3827,-0.78814 -2.05078,-1.21976 -0.56927,-0.3677 -1.08127,-0.82084 -1.65823,-1.17642 -0.40421,-0.24912 -4.01748,-2.11306 -4.20608,-2.21263 -2.17913,-1.15029 -4.40184,-2.16528 -6.64053,-3.19658 -3.48089,-1.60354 -6.93753,-3.25006 -10.48847,-4.69419 -5.48057,-2.22893 -11.04822,-4.26272 -16.47385,-6.62641 -2.13365,-0.9295 -4.23846,-1.95253 -6.35247,-2.92638 -0.53794,-0.24784 -1.49917,-0.83627 -2.1553,-0.99288 -1.81672,-0.43361 -3.72382,-0.61876 -5.51381,-1.16492 -3.68233,-1.12361 -7.35128,-2.32465 -10.95878,-3.67326 -1.64246,-0.61399 -3.20492,-1.41463 -4.86886,-1.96791 -2.14936,-0.71477 -4.34341,-1.30416 -6.49138,-2.02782 -1.69859,-0.57226 -3.37548,-1.26548 -5.08681,-1.79333 -0.64762,-0.19971 -1.32231,-0.30214 -1.97177,-0.4958 -1.04978,-0.31306 -2.54785,-1.01352 -3.50763,-1.34078 -0.44043,-0.15056 -0.90154,-0.23203 -1.35232,-0.34796 -0.60202,-0.18569 -1.2105,-0.35159 -1.80608,-0.55697 -1.16443,-0.23587 -2.13218,-0.95139 -3.22849,-1.34974 -4.30151,-1.56311 1.91039,1.07316 -2.87926,-0.91385 -2.57716,-1.06916 -5.12744,-2.20079 -7.70479,-3.27434 -0.8839,-0.36819 -1.72132,-0.84305 -2.60905,-1.2019 -2.69693,-1.09006 0.27493,0.18923 -2.31208,-0.65256 -0.21096,-0.0682 -1.29766,-0.61917 -1.58812,-0.73161 -0.39006,-0.15139 -0.79796,-0.25427 -1.18664,-0.4091 -0.92634,-0.36905 -1.79257,-0.89427 -2.72248,-1.25417 -2.39538,-0.92711 0.53237,0.38277 -1.52693,-0.56592 -0.85569,-0.39422 -1.71852,-0.89483 -2.60905,-1.2019 -0.79263,-0.27329 -1.72373,-0.50104 -2.43444,-0.98398 -0.59151,-0.40194 -1.17126,-0.8408 -1.77165,-1.22867 -0.13985,-0.0904 -0.32746,-0.10044 -0.45374,-0.20903 -0.10141,-0.0872 -0.39264,-0.54847 -0.52385,-0.65387 -0.0974,-0.0782 -0.24288,-0.0787 -0.34033,-0.15672 -0.0911,-0.0731 -0.16063,-0.28983 -0.23581,-0.38365 -0.10729,-0.13403 -0.34183,-0.16185 -0.40148,-0.32246 -0.16369,-0.44331 -0.17155,-1.03535 -0.27149,-1.50017 -0.0535,-0.24854 -0.29761,-0.5693 -0.3059,-0.82848 -8.8e-4,-0.0415 0.0783,-0.081 0.0523,-0.11341 -0.0521,-0.0649 -0.19802,-0.0266 -0.22689,-0.10452 -0.13876,-0.12089 0.20003,-0.22315 0.15673,-0.34033 -0.0144,-0.0389 -0.099,-0.0128 -0.11342,-0.0523 -0.0221,-0.0598 0.85354,-1.61429 0.89729,-1.64929 0.0726,-0.0583 0.1998,0.04 0.27912,-0.009 0.14191,-0.0872 0.10469,-0.32393 0.20904,-0.45376 0.21451,-0.26706 0.43941,-0.52057 0.64492,-0.80297 0.54554,-0.74966 -0.0276,0.0935 0.6016,-0.41043 0.6026,-0.48278 1.33589,-1.59265 1.83028,-2.18206 0.36223,-0.43188 0.72254,-0.60018 1.142,-0.98653 1.19766,-1.10309 2.23074,-2.40185 3.40819,-3.51784 0.33783,-0.32018 0.75192,-0.55288 1.08975,-0.87309 0.67339,-0.63822 1.28282,-1.32681 1.89146,-2.01636 0.27132,-0.30741 0.66055,-0.49777 0.92405,-0.81192 0.18922,-0.22551 0.26826,-0.53647 0.47923,-0.74178 0.21512,-0.20941 0.54012,-0.27536 0.7673,-0.47161 0.16061,-0.13879 0.21866,-0.37108 0.37471,-0.51493 0.24689,-0.22739 0.55761,-0.37516 0.81955,-0.58503 2.39231,-1.91667 4.05428,-3.62813 7.18474,-4.25327 2.19782,-0.43891 4.38183,-0.19817 6.59463,0.0127 1.69991,0.16203 3.32042,0.49094 4.99886,0.7902 0.42788,0.0763 0.86912,0.0782 1.29114,0.18224 0.65177,0.16069 1.27284,0.42906 1.9195,0.60928 1.21968,0.33993 2.44292,0.66701 3.66439,1.00052 0.61433,0.16782 1.24976,0.25582 1.85833,0.44355 0.36738,0.11335 3.67496,1.42992 3.84794,1.4976 1.98508,0.77666 3.90171,1.65988 5.83754,2.55166 2.79521,1.28765 5.62999,2.51483 8.39433,3.867 3.05799,1.4958 5.875,3.34035 8.8226,5.02685 0.57927,0.33148 1.19482,0.59897 1.76273,0.94954 0.89691,0.55367 1.74558,1.18203 2.6269,1.76018 1.79107,1.17493 3.65299,2.24682 5.41949,3.45915 1.43389,0.98407 2.78016,2.09397 4.23287,3.05003 0.45343,0.29839 0.96228,0.50484 1.42241,0.79278 2.03953,1.27639 3.95268,2.72999 5.99561,3.99956 2.52538,1.56942 5.13126,3.01338 7.63596,4.61774 1.92103,1.23049 3.75732,2.58109 5.6553,3.84279 1.01079,0.67195 2.11902,1.18851 3.1329,1.85577 1.02338,0.67351 2.01507,1.39406 3.02839,2.08262 2.83708,1.92783 5.58208,3.98729 8.40454,5.93438 1.31358,0.90617 2.71451,1.71726 3.99708,2.66637 3.52006,2.60493 -1.33216,-0.67235 2.28658,1.60339 2.02182,1.27151 0.517,0.40653 2.4612,1.82137 2.58958,1.88447 0.15997,-0.006 2.67916,1.64672 2.24915,1.47544 -1.11436,-0.29793 2.2254,1.4377 1.4062,0.73081 2.80486,1.4755 4.2061,2.21264 0.36842,0.19386 0.77779,0.3077 1.13436,0.52257 0.29406,0.17715 0.5114,0.46372 0.80298,0.64492 0.56577,0.35158 1.22741,0.52236 1.815,0.83611 0.33257,0.17753 0.63678,0.40497 0.96868,0.58374 1.74857,0.94193 3.64058,1.67712 5.44497,2.50833 2.03148,0.93584 4.04625,2.00054 6.1256,2.82187 0.35062,0.13855 0.72335,0.2164 1.07318,0.3569 0.81135,0.32564 1.55566,0.81243 2.38218,1.09739 0.40134,0.13848 0.83817,0.15539 1.23888,0.2957 0.43207,0.15178 0.82391,0.40151 1.24781,0.57483 1.69919,0.69495 3.44723,1.26731 5.14799,1.959 0.38564,0.15682 0.74142,0.38504 1.13437,0.52258 0.43945,0.15339 0.91064,0.20111 1.35232,0.34794 0.79108,0.26306 1.53646,0.64973 2.321,0.93168 0.47746,0.17147 2.04954,0.69508 2.48669,0.87051 3.55032,1.63553 -1.11534,-0.45543 1.86726,0.72265 0.42592,0.16827 0.81411,0.42779 1.24781,0.57483 0.32495,0.1107 0.68623,0.0829 1.012,0.19122 0.39507,0.1313 0.7476,0.36854 1.13437,0.52256 0.35022,0.13957 0.72163,0.22077 1.07318,0.3569 0.88571,0.34278 1.74649,0.80455 2.60906,1.20191 1.8528,0.85352 3.70561,1.70704 5.55841,2.56058 1.65555,0.76265 3.37425,1.45894 4.99123,2.2993 2.33253,1.21218 -0.0944,0.0325 1.99853,1.33318 2.95784,1.83816 -2.01814,-1.6444 1.87617,1.00182 0.28396,0.19294 0.51903,0.45197 0.80299,0.64492 0.34605,0.23516 0.7383,0.39758 1.08211,0.63601 0.24906,0.17269 0.4597,0.39511 0.68955,0.59266 0.34327,0.24985 0.67869,0.51083 1.02985,0.74944 0.27763,0.18862 0.6024,0.31074 0.85524,0.5315 0.30887,0.26966 0.50845,0.64832 0.8119,0.92406 0.31422,0.28552 0.71564,0.46393 1.02986,0.74944 0.66391,0.60326 1.42685,1.55829 1.97304,2.28403 1.75677,2.33424 -0.94318,-0.90927 1.05664,1.58683 0.14017,0.17496 0.34124,0.29969 0.46267,0.48816 0.18194,0.28236 0.88002,1.61847 1.01329,1.97939 0.0721,0.19528 0.0592,0.41526 0.13128,0.61053 0.0923,0.25006 0.28267,0.45937 0.35816,0.71503 0.0527,0.17856 -0.0171,0.37537 0.0178,0.55825 0.0331,0.1735 0.1779,0.32055 0.18354,0.49709 0.007,0.21217 -0.10845,0.41084 -0.14785,0.61944 -0.16302,0.86292 -0.29598,1.23951 -0.66149,2.03295 -0.24171,0.52469 -0.52637,1.25128 -1.01072,1.59703 -0.14376,0.10263 -0.34371,0.096 -0.49709,0.18354 -0.16168,0.0923 -0.28021,0.24713 -0.4359,0.34924 -0.67731,0.44424 -1.40923,0.79765 -2.08391,1.24016 -0.56889,0.37313 -1.24398,0.60195 -1.81371,0.95212 -0.15862,0.0975 -0.27728,0.25173 -0.4359,0.34923 -0.22711,0.13959 -0.49213,0.21197 -0.71504,0.35816 -0.11007,0.0722 -0.15804,0.21911 -0.2702,0.28805 -0.15049,0.0925 -0.3437,0.096 -0.49709,0.18355 -0.16167,0.0923 -0.2678,0.26919 -0.4359,0.34923 -0.13552,0.0645 -0.304,0.0181 -0.44482,0.0701 -0.20203,0.0746 -0.34731,0.22238 -0.54934,0.29699 -0.75429,0.27851 -0.0383,-0.0746 -0.4359,0.34923 -0.0806,0.0859 -0.2395,0.0488 -0.3314,0.12238 -0.26839,0.21503 0.37645,0.0493 -0.2702,0.28804 -0.0873,0.0322 -0.19176,-0.0237 -0.27912,0.009 -0.0392,0.0145 -0.39017,0.76364 -0.3658,0.79406 0.20373,0.25427 0.2922,-0.0373 0.17462,0.21796 0.003,0.093 -0.0233,0.1918 0.009,0.27913 0.076,0.20592 0.55985,0.49639 0.63729,0.7061 0.0322,0.0874 -0.0398,0.19983 0.009,0.27914 0.0436,0.071 0.16613,0.0476 0.22688,0.10452 0.0859,0.0805 0.0487,0.23949 0.12236,0.3314 0.75306,0.93993 0.75034,0.75729 1.24017,2.0839 z"
       id="path1-2-6-5" />
    <path
       style="fill:#ccffaa;stroke-width:0.264583"
       d="m -1.6697471,0.11303838 c 0.009,0.528407 0.67485998,0.417534 0.88125998,0.74113 0.1142,0.17895202 0.10812,0.41848602 0.22452,0.59594802 0.11419,0.174002 0.33502,0.259168 0.45075,0.432187 0.16848,0.251941 0.23505,0.560678 0.38863,0.822007 0.14129,0.240913 0.36116,0.431558 0.49129,0.678664 0.17885,0.33962 0.25646002,0.725701 0.42876002,1.068672 0.14216,0.283402 0.34099,0.534621 0.51154,0.801911 0.14971,0.397292 0.27587,0.804268 0.44907,1.191889 0.99953,2.236784 0.14544,-0.08309 0.96105,1.993586 0.51025,1.30003 0.94601,2.6293466 1.40798,3.9453956 0.3633,0.512977 0.22553,1.149634 0.4069,1.705105 0.0941,0.288116 0.29064,0.53525 0.38863,0.822008 0.13525,0.397591 0.52721,2.709072 0.50647,3.081022 -0.0198,0.355152 -0.22135,0.691264 -0.20764,1.0467 0.008,0.208025 0.0993,0.40801 0.10134,0.616193 0.006,0.596037 -0.0246,1.193255 -0.0861,1.78615 -0.16928,1.632516 -0.20333,-0.547661 -0.2296,1.683168 -0.004,0.376953 0.0759,0.752805 0.0591,1.129427 -0.0552,1.238088 -0.40372,2.493127 -0.39841,3.736055 0.003,0.584316 0.13496,1.161857 0.16039,1.745629 0.0202,0.465019 -0.0158,0.930781 -0.0236,1.396168 -0.008,0.718621 -0.0582,1.43795 -0.0253,2.15587 0.0325,0.70821 0.1966,1.406821 0.22116,2.115353 0.0206,0.595719 -0.10909,1.19052 -0.0861,1.78615 0.006,0.151322 0.49704,4.526663 0.50311,4.600422 0.12355,1.5029 0.14103,3.012768 0.23636,4.517714 0.0977,1.542333 0.32638,3.076185 0.37986,4.620687 0.0542,1.566753 -0.13279,3.134143 -0.1131,4.701716 0.006,0.501267 0.0799,0.999441 0.11986,1.499145 0.0186,0.882946 0.0577,1.765707 0.0557,2.648837 -0.006,2.57135 0.047,5.14675 0.003,7.720279 -0.0108,0.63675 -0.0766,1.27264 -0.0658,1.90939 0.0134,0.79526 0.1519,1.58683 0.13843,2.38209 -0.0103,0.60608 -0.18845,1.20061 -0.20934,1.80641 -0.0231,0.67089 0.0972,1.34137 0.0777,2.01237 -7.7e-4,0.0384 -0.32154,3.70365 -0.31737,4.22903 0.006,0.79534 0.1217,1.58688 0.13842,2.38209 0.0143,0.67755 -0.0742,1.35552 -0.0456,2.03264 0.0201,0.47439 0.50019,4.51165 0.52336,4.72365 0.26788,2.44949 0.67224,4.8593 1.07205,7.29147 0.62166,3.781734 1.19412,7.567454 1.98707,11.317914 1.2238201,5.78852 2.6580601,11.53987 3.7394701,17.35838 0.42528,2.28813 0.75695,4.60477 1.1345,6.90148 0.096,0.58445 0.14709,1.71033 0.38492,2.34158 0.65852,1.7478 1.5735,3.4313 2.12382,5.22001 1.13205,3.67974 2.19248,7.39178 3.09624,11.13557 0.41148,1.70451 0.62354,3.4473 1.09735,5.1356 0.61197,2.18085 1.35284,4.32849 1.95666,6.51318 0.4775,1.72762 0.84264,3.50503 1.36407,5.21833 0.19735,0.64834 0.49046,1.26461 0.69386,1.91108 0.32875,1.04497 0.58773,2.67831 0.8543,3.65669 0.12201,0.44917 0.31283,0.87678 0.46932,1.31513 0.18343,0.60271 0.38687,1.19969 0.55038,1.8081 0.45692,1.0967 0.40634,2.29918 0.6905,3.43048 1.11485,4.43885 -0.18121,-2.18368 0.85594,2.897 0.55806,2.73375 1.0493,5.48024 1.60384,8.21662 0.19015,0.93845 0.26591,1.89814 0.46595,2.83454 0.60784,2.84467 0.003,-0.33376 0.75466,2.28079 0.0617,0.21295 0.21404,1.42178 0.28362,1.72538 0.0931,0.40792 0.23638,0.80344 0.32585,1.21214 0.21323,0.97409 0.26341,1.98586 0.48622,2.95778 0.57388,2.5036 0.0188,-0.65542 0.38658,1.58187 0.15279,0.92967 0.22146,1.92484 0.46596,2.83454 0.21764,0.80968 0.55058,1.70856 0.54866,2.56782 -0.002,0.71515 -0.0403,1.44123 -0.0253,2.15586 0.003,0.1665 0.10024,0.32752 0.081,0.49296 -0.0154,0.13285 -0.23438,0.6325 -0.24819,0.80022 -0.0102,0.12447 0.0708,0.24531 0.0608,0.36972 -0.01,0.11638 -0.1501,0.29542 -0.18571,0.41025 -0.0509,0.16396 0.0574,0.37383 -0.0422,0.51321 -0.27552,0.38393 -0.76154,0.7221 -1.0906,1.06527 -0.17591,0.18355 -0.30487,0.56545 -0.51491,0.71751 -0.0339,0.024 -0.11095,-0.0195 -0.12325,0.0202 -0.0246,0.0795 0.0889,0.17891 0.0405,0.24649 -0.0224,0.18267 -0.2969,-0.0407 -0.36971,0.0608 -0.0242,0.0337 0.0448,0.0892 0.0202,0.12325 -0.0372,0.0518 -1.81536,0.19727 -1.86886,0.18063 -0.089,-0.0275 -0.0788,-0.18789 -0.16372,-0.22623 -0.15172,-0.0687 -0.32698,0.0947 -0.49298,0.081 -0.34139,-0.0281 -0.67737,-0.0724 -1.02643,-0.0844 -0.9266,-0.0319 0.0929,-0.0295 -0.677,-0.26842 -0.73748,-0.22872 -2.06764,-0.2144 -2.83284,-0.29376 -0.56067,-0.0581 -0.90193,-0.26231 -1.45695,-0.39334 -1.58467,-0.37416 -3.23925,-0.50236 -4.82328,-0.85255 -0.45448,-0.10048 -0.87921,-0.31314 -1.33371,-0.41361 -0.90591,-0.20028 -1.8177,-0.31936 -2.72986,-0.43727 -0.40664,-0.0525 -0.78237,-0.26832 -1.19021,-0.31061 -0.29281,-0.0304 -0.59467,0.0783 -0.88293,0.0186 -0.29397,-0.0609 -0.53066,-0.29317 -0.82049,-0.37142 -0.20495,-0.0553 -0.42988,0.0268 -0.63647,-0.0219 -0.32666,-0.0771 -0.62313,-0.25174 -0.9437101,-0.35116 -2.92786,-0.90799 -5.27659,-1.32596 -7.5481,-3.56891 -1.59477002,-1.57472 -2.61882002,-3.51873 -3.68373,-5.46986 -0.81806,-1.49891 -1.4534,-3.02554 -2.14575,-4.58354 -0.17649,-0.39719 -0.42208,-0.76376 -0.57233,-1.17162 -0.23201,-0.62992 -0.35762,-1.29473 -0.57059,-1.93135 -0.40167,-1.20077 -0.81597,-2.39728 -1.22397,-3.59593 -0.20513,-0.6029 -0.4882,-1.17856 -0.6736,-1.78784 -0.1119,-0.36782 -0.8742,-3.84523 -0.91503,-4.02643 -0.46867,-2.07945 -0.81073,-4.16189 -1.15645,-6.26503 -0.49921,-3.03678 -1.07069,-6.07246 -1.4991699,-9.11981 -0.47399,-3.37106 -0.5241,-6.73787 -0.77829,-10.12432 -0.0499,-0.66553 -0.17316,-1.32528 -0.20091,-1.9921 -0.0438,-1.05313 10e-4,-2.10814 -0.0135,-3.16207 -0.0301,-2.14184 -0.1852,-4.28464 -0.17052,-6.42708 0.0119,-1.73905 0.17714,-3.47601 0.1553,-5.21496 -0.007,-0.54276 -0.12087,-1.07993 -0.14011,-1.62238 -0.0852,-2.40449 0.0472,-4.80357 -0.0456,-7.20706 -0.11465,-2.9711 -0.37833,-5.93862 -0.45245,-8.91216 -0.0569,-2.28062 0.0333,-4.55834 0.0152,-6.83735 -0.01,-1.21372 -0.20255,-2.42111 -0.21778,-3.63476 -0.0154,-1.22502 0.026,-2.45015 0.0287,-3.67527 0.008,-3.43009 0.17587,-6.85764 0.20764,-10.28641 0.0148,-1.595744 -0.0981,-3.210594 -0.0304,-4.804704 0.18591,-4.37516 0.18931,1.48015 0.0472,-2.79233 -0.0793,-2.38709 0.0471,-0.656 0.13001,-3.05909 0.11036,-3.20076 -0.0944,-0.12926 -0.13676,-3.14179 -0.0378,-2.68965 0.37746,1.08999 -0.0557,-2.64883 -0.18238,-1.57424 -0.34902,-3.15 -0.52337,-4.72367 -0.0458,-0.41379 -0.18083,-0.81667 -0.20258,-1.23241 -0.018,-0.34282 0.0977,-0.68339 0.0844,-1.02644 -0.0257,-0.66561 -0.25489,-1.30936 -0.32415,-1.97186 -0.0392,-0.37493 -0.0213,-0.75434 -0.0591,-1.12942 -0.19929,-1.97611 -0.65017,-3.95523 -0.97243,-5.91556 -0.3628,-2.20705 -0.60951,-4.472449 -1.09398,-6.655009 -0.0816,-0.36805 -0.22596,-0.72042 -0.30555,-1.08891 -0.18476,-0.85452 -0.19848,-1.74376 -0.42544,-2.58805 -0.11012,-0.410031 -0.34082,-0.781364 -0.44906,-1.191893 -0.11632,-0.442939 -0.12896,-0.907422 -0.22286,-1.355653 -0.3762,-1.796858 -0.88131,-3.565496 -1.26109,-5.361823 -0.0861,-0.407299 -0.0964,-0.82986 -0.20259,-1.232409 -0.11911,-0.449961 -0.34353,-0.867004 -0.46933,-1.31513 -0.22526,-0.802668 -0.32251,-1.636718 -0.52844,-2.444551 -0.12543,-0.491569 -0.57237,-2.08714 -0.67193,-2.547539 -0.63406,-3.857161 0.24754,1.179041 -0.44741,-1.951588 -0.0992,-0.447073 -0.1017,-0.914021 -0.22284,-1.355652 -0.0903,-0.331188 -0.31576,-0.614891 -0.40853,-0.945424 -0.11255,-0.400813 -0.11351,-0.825733 -0.20259,-1.232404 -0.0806,-0.368292 -0.22137,-0.721442 -0.30555,-1.088914 -0.21222,-0.925714 -0.31191,-1.897428 -0.46595,-2.834542 -0.3309,-2.012932 -0.66181,-4.025863 -0.9927,-6.0388 -0.29567,-1.798628 -0.68169,-3.612387 -0.891388,-5.422598 -0.302552,-2.611234 0.07981,0.06 -0.01521,-2.402348 -0.134297,-3.479887 -0.23161,2.592931 -0.221148,-2.115357 7.56e-4,-0.343305 0.08364,-0.683138 0.0844,-1.026442 9.44e-4,-0.418394 -0.08425,-0.834306 -0.07935,-1.252669 0.0035,-0.303053 0.06978,-0.602135 0.104663,-0.9032 0.01467,-0.424315 0.04295,-0.84837 0.04389,-1.272926 7.22e-4,-0.335636 -0.08005,-0.673082 -0.03882,-1.006188 0.05035,-0.406919 0.252217,-0.784361 0.310637,-1.190204 0.0605,-0.420229 -0.0166,-0.852697 0.0439,-1.2729236 0.1278,-0.887899 0.49151,-2.054889 0.78672,-2.913891 0.94947,-2.762865 -0.22484,1.290666 0.72255,-1.764203 0.0664,-0.214129 0.0571,-0.450557 0.14519,-0.656722 0.13198,-0.308895 0.84769,-1.635636 1.07201,-1.948217 0.12138,-0.169119 0.31083,-0.281646 0.4322,-0.450761 0.15542,-0.216573 0.22218,-0.491483 0.39167,-0.697241 0.11837,-0.143703 0.32049,-0.19616 0.45243,-0.32751702 0.12517,-0.124617 0.16587,-0.326927 0.30895,-0.430499 0.17196,-0.12448 0.40108,-0.14032 0.59594,-0.224536 0.80614,-0.348366 1.19258,-0.449183 2.05459,-0.590887 0.57004,-0.0937 1.33139,-0.264932 1.88912,-0.0574 0.16554,0.06159 0.27203,0.230953 0.4305,0.308943 0.16706,0.08221 0.36169,0.09369 0.53348,0.165446 0.74743,0.312199 1.45019,0.720518 2.1947,1.03150702 0.62777,0.262217 1.1954999,0.693257 1.8047299,0.96904 0.16962,0.07678 0.36385,0.08867 0.53348,0.165446 0.24285,0.109931 0.45127,0.288922 0.69724,0.391669 0.12147,0.05074 0.27004,0.0082 0.38997,0.06246 0.16092,0.07284 0.27203,0.230954 0.43051,0.308942 0.16705,0.08221 0.37301,0.07103 0.53348,0.165448 0.12939,0.0761 0.18529,0.241695 0.30726,0.329204 0.17497,0.125567 0.37877,0.163121 0.55375,0.288685 0.65325,0.468801 -0.0403,0.07353 0.53347,0.165445 0.11631,0.01862 0.17459,0.171066 0.28702,0.205961 0.32848,0.101873 -0.17004,-0.33945 0.38997,0.06247 0.0756,0.05428 0.0878,0.172098 0.16371,0.226245 0.0339,0.02431 0.85115,-0.104588 0.86269,-0.14182 0.0965,-0.311194 -0.19455,-0.221168 0.0827,-0.26674 0.0754,-0.05457 0.17196,-0.0881 0.22622,-0.163765 0.12798,-0.178337 0.0976,-0.741829 0.2279,-0.923459 0.0543,-0.07565 0.18784,-0.07896 0.22623,-0.163766 0.0344,-0.07587 -0.0536,-0.164293 -0.0405,-0.246487 0.0186,-0.116252 0.17108,-0.17453 0.20598,-0.287003 0.35674,-1.150345 0.20698,-1.045782 1.03149,-2.19469902 z"
       id="path1-2-6-2" />
  </g>
</svg>
