<?xml version="1.0" encoding="UTF-8" standalone="no"?>
<!-- Created with Inkscape (http://www.inkscape.org/) -->

<svg
   width="30mm"
   height="41.999996mm"
   viewBox="0 0 30 41.999996"
   version="1.1"
   id="svg1"
   inkscape:version="1.4.2 (ebf0e94, 2025-05-08)"
   sodipodi:docname="king_card.svg"
   xmlns:inkscape="http://www.inkscape.org/namespaces/inkscape"
   xmlns:sodipodi="http://sodipodi.sourceforge.net/DTD/sodipodi-0.dtd"
   xmlns="http://www.w3.org/2000/svg"
   xmlns:svg="http://www.w3.org/2000/svg">
  <sodipodi:namedview
     id="namedview1"
     pagecolor="#ffffff"
     bordercolor="#000000"
     borderopacity="0.25"
     inkscape:showpageshadow="2"
     inkscape:pageopacity="0.0"
     inkscape:pagecheckerboard="0"
     inkscape:deskcolor="#d1d1d1"
     inkscape:document-units="mm"
     inkscape:zoom="4.1549382"
     inkscape:cx="23.827069"
     inkscape:cy="85.560839"
     inkscape:window-width="2560"
     inkscape:window-height="1368"
     inkscape:window-x="1440"
     inkscape:window-y="393"
     inkscape:window-maximized="1"
     inkscape:current-layer="layer1" />
  <defs
     id="defs1" />
  <g
     inkscape:label="Layer 1"
     inkscape:groupmode="layer"
     id="layer1"
     transform="translate(-123.29277,-173.80705)">
    <rect
       style="fill:#ffe6d5;stroke-width:0.126071"
       id="rect1"
       width="30"
       height="41.999996"
       x="123.29277"
       y="173.80705"
       transform="translate(5.4166669e-7)" />
    <text
       xml:space="preserve"
       style="font-size:9.12563px;text-align:start;writing-mode:lr-tb;direction:ltr;text-anchor:start;fill:#ff0000;stroke-width:0.76047"
       x="123.38468"
       y="181.47562"
       id="text2"
       inkscape:highlight-color="#3b93ee"><tspan
         sodipodi:role="line"
         id="tspan2"
         style="stroke-width:0.76047"
         x="123.38468"
         y="181.47562">K</tspan></text>
    <text
       xml:space="preserve"
       style="font-size:9.12563px;text-align:start;writing-mode:lr-tb;direction:ltr;text-anchor:start;fill:#ff0000;stroke-width:0.76047"
       x="-153.26089"
       y="-208.48157"
       id="text2-3"
       transform="scale(-1)"><tspan
         sodipodi:role="line"
         id="tspan2-5"
         style="stroke-width:0.76047"
         x="-153.26089"
         y="-208.48157">K</tspan></text>
    <circle
       style="fill:#cccccc;stroke-width:0.0793749"
       id="path2"
       cx="138.71252"
       cy="196.0377"
       r="3.9714718" />
    <g
       id="g6"
       transform="matrix(0.21736526,0,0,0.29999999,115.43033,151.08172)">
      <rect
         style="fill:#808000;stroke-width:0.264583"
         id="rect2"
         width="29.898609"
         height="4.6829147"
         x="92.037277"
         y="137.60565" />
      <path
         style="fill:#c4c400;fill-opacity:1;stroke-width:0.264583"
         d="m 91.947228,137.78576 c 4.682913,-5.76359 5.763588,-17.11065 5.763588,-17.11065 l 3.422134,6.12381 8.28515,-9.72605 5.58348,8.82549 4.14258,-5.58347 c 0,0 -1.62101,1.08067 0.54033,9.72605 2.25141,7.83488 2.34146,8.46527 2.34146,8.46527 z"
         id="path3" />
      <rect
         style="fill:#1a1a1a;fill-opacity:1;stroke-width:0.174279"
         id="rect3"
         width="4.8641772"
         height="4.8641772"
         x="168.274"
         y="-3.6330845"
         transform="matrix(0.62916148,0.77727461,-0.62916148,0.77727461,0,0)" />
    </g>
    <ellipse
       style="fill:#1a1a1a;fill-opacity:1;stroke-width:0.0793749"
       id="path4"
       cx="136.78081"
       cy="195.13264"
       rx="0.47279429"
       ry="0.31069335" />
    <ellipse
       style="fill:#1a1a1a;fill-opacity:1;stroke-width:0.0793749"
       id="path5"
       cx="140.86035"
       cy="195.2137"
       rx="0.39174381"
       ry="0.22964291" />
    <path
       style="fill:#1a1a1a;fill-opacity:1;stroke-width:0.126892"
       d="m 136.78969,197.28716 c 0.54748,0.62819 -0.67695,-0.80267 0.33748,0.29847 0.0349,0.0378 0.0432,0.10698 0.075,0.14925 0.13782,0.18286 0.35606,0.28594 0.52496,0.39799 0.0863,0.0573 -0.0163,0.0583 0.075,0.14923 0.0877,0.0873 0.21551,0.0652 0.29998,0.14924 0.0223,0.0222 0.0177,0.0732 0.0375,0.0995 0.10609,0.14075 1.04643,0.11309 1.23742,0.0498 0.035,-0.0116 0.21542,-0.0244 0.22498,-0.0498 0.0112,-0.0297 -0.0112,-0.0698 0,-0.0995 0.0158,-0.0419 0.16256,-0.0166 0.18748,-0.0498 0.009,-0.0117 -0.009,-0.038 0,-0.0498 0.05,-0.0663 0.036,0.10553 0.0749,-0.0498 0.008,-0.0315 -0.0177,-0.076 0,-0.0995 0.0178,-0.0235 0.0512,0.0105 0.075,0 0.0336,-0.0148 0.0434,-0.0785 0.075,-0.0995 0.0386,-0.0256 0.16124,-0.0646 0.18748,-0.0995 0.0125,-0.0332 0.025,-0.0663 0.0375,-0.0995 0.0125,0 0.0286,0.0117 0.0375,0 0.009,-0.0117 -0.0112,-0.0423 0,-0.0497 0.0319,-0.0213 0.12121,-0.0116 0.14999,-0.0498 0.009,-0.0117 -0.009,-0.038 0,-0.0498 0.0265,-0.0352 0.086,0.0352 0.11249,0 0.0178,-0.0235 -0.0112,-0.0698 0,-0.0995 0.0112,-0.0297 0.0574,0.0235 0.0749,0 0.009,-0.0117 -0.009,-0.038 0,-0.0497 0.0178,-0.0235 0.0574,0.0235 0.075,0 0.009,-0.0117 -0.0112,-0.0423 0,-0.0498 0.0224,-0.0148 0.10003,0 0.075,0 -0.0386,0 -0.36646,0.0384 -0.37498,0.0498 -0.009,0.0117 0.009,0.038 0,0.0497 -0.0265,0.0352 -0.0813,-0.0275 -0.11249,0 -0.0232,0.0206 -0.0177,0.0732 -0.0375,0.0995 -0.0177,0.0235 -0.0574,-0.0235 -0.075,0 -0.009,0.0117 0.0112,0.0423 0,0.0498 -0.0336,0.0222 -0.086,-0.0352 -0.11249,0 -0.009,0.0117 0.009,0.038 0,0.0498 -0.0188,0.0248 -0.0938,-0.0249 -0.11249,0 -0.009,0.0117 0.0112,0.0423 0,0.0497 -0.0447,0.0296 -0.12764,-0.0593 -0.15,0 -0.0112,0.0296 0.0112,0.0698 0,0.0995 -0.0112,0.0298 -0.12987,-0.0266 -0.14999,0 -0.009,0.0117 0.009,0.038 0,0.0497 -0.0296,0.0393 -0.2905,0.0371 -0.29997,0.0498 -0.009,0.0117 0.0112,0.0423 0,0.0498 -0.0571,0.0378 -0.23504,0 -0.29997,0 -0.0983,0 -0.32631,0.0572 -0.41248,0 -0.0749,-0.0497 -0.14986,-0.0497 -0.22498,-0.0995 -0.0224,-0.0148 -0.0574,0.0235 -0.075,0 -0.009,-0.0117 0.0112,-0.0423 0,-0.0497 -0.0336,-0.0222 -0.086,0.0352 -0.1125,0 -0.0198,-0.0262 -0.0178,-0.0732 -0.0375,-0.0995 -0.0178,-0.0235 -0.0512,0.0105 -0.0749,0 -0.0265,-0.0117 -0.0485,-0.038 -0.075,-0.0497 -0.0237,-0.0105 -0.0574,0.0235 -0.075,0 -0.009,-0.0117 0.009,-0.038 0,-0.0498 -0.0265,-0.0352 -0.0769,0.0157 -0.1125,0 -0.072,-0.0319 -0.0558,-0.099 -0.11249,-0.14925 -0.0208,-0.0183 -0.0512,0.0105 -0.0749,0 -0.0686,-0.0303 -0.22678,-0.15042 -0.29998,-0.19899 -0.075,-0.0498 0,0.0995 -0.1125,0 -0.0233,-0.0205 -0.0178,-0.0732 -0.0375,-0.0995 -0.0115,-0.0153 -0.095,0.002 -0.11249,0 -0.10013,-0.0147 -0.19999,-0.0332 -0.29998,-0.0498 z"
       id="path6" />
  </g>
</svg>
